<svg width="24" height="24" viewBox="0 0 24 24" fill="none" xmlns="http://www.w3.org/2000/svg">
<path fill-rule="evenodd" clip-rule="evenodd" d="M0.969972 1.46993C0.215151 2.22475 0.215151 3.44856 0.969972 4.20338L9.1703 12.4037L0.969924 20.6041C0.215104 21.3589 0.215103 22.5828 0.969924 23.3376C1.72474 24.0924 2.94855 24.0924 3.70337 23.3376L11.9037 15.1372L20.1041 23.3376C20.8589 24.0924 22.0827 24.0924 22.8375 23.3376C23.5924 22.5827 23.5924 21.3589 22.8375 20.6041L14.6372 12.4037L22.8375 4.2034C23.5923 3.44858 23.5923 2.22477 22.8375 1.46995C22.0827 0.715128 20.8589 0.715128 20.104 1.46995L11.9037 9.67027L3.70342 1.46993C2.9486 0.715103 1.72479 0.715103 0.969972 1.46993Z" fill="#282828"/>
</svg>
