<svg width="40" height="40" viewBox="0 0 40 40" fill="none" xmlns="http://www.w3.org/2000/svg">
<path d="M20.644 4C22.4447 4.00298 23.3572 4.0125 24.1457 4.03597L24.4563 4.04613C24.815 4.05888 25.1689 4.07488 25.5957 4.09488C27.2983 4.17354 28.4598 4.4429 29.4798 4.83891C30.5344 5.24558 31.4252 5.79494 32.3145 6.6843C33.2025 7.57366 33.752 8.46703 34.16 9.51907C34.5545 10.5378 34.824 11.7005 34.904 13.4032C34.923 13.8299 34.9384 14.1838 34.951 14.5426L34.9611 14.8532C34.9845 15.6416 34.9952 16.5542 34.9986 18.3549L34.9998 19.5481C35 19.6938 35 19.8443 35 19.9995L34.9998 20.4508L34.9989 21.644C34.9958 23.4447 34.9864 24.3572 34.9629 25.1457L34.9526 25.4563C34.94 25.815 34.924 26.1689 34.904 26.5957C34.8253 28.2983 34.5545 29.4598 34.16 30.4798C33.7532 31.5344 33.2025 32.4252 32.3145 33.3145C31.4252 34.2025 30.5304 34.752 29.4798 35.16C28.4598 35.5545 27.2983 35.824 25.5957 35.904C25.1689 35.923 24.815 35.9384 24.4563 35.951L24.1457 35.9611C23.3572 35.9845 22.4447 35.9952 20.644 35.9986L19.4508 35.9998C19.3051 36 19.1547 36 18.9995 36L18.5481 35.9998L17.3549 35.9989C15.5542 35.9958 14.6416 35.9864 13.8532 35.9629L13.5426 35.9526C13.1838 35.94 12.8299 35.924 12.4032 35.904C10.7005 35.8253 9.54043 35.5545 8.51907 35.16C7.46569 34.7532 6.57366 34.2025 5.6843 33.3145C4.79494 32.4252 4.24692 31.5304 3.83891 30.4798C3.4429 29.4598 3.17489 28.2983 3.09488 26.5957C3.07587 26.1689 3.06037 25.815 3.04781 25.4563L3.03775 25.1457C3.01434 24.3572 3.00366 23.4447 3.00021 21.644L3 18.3549C3.00298 16.5542 3.0125 15.6416 3.03597 14.8532L3.04613 14.5426C3.05888 14.1838 3.07488 13.8299 3.09488 13.4032C3.17354 11.6991 3.4429 10.5391 3.83891 9.51907C4.24558 8.46569 4.79494 7.57366 5.6843 6.6843C6.57366 5.79494 7.46703 5.24692 8.51907 4.83891C9.5391 4.4429 10.6991 4.17489 12.4032 4.09488C12.8299 4.07587 13.1838 4.06037 13.5426 4.04781L13.8532 4.03775C14.6416 4.01434 15.5542 4.00366 17.3549 4.00021L20.644 4ZM18.9995 11.9992C14.5786 11.9992 10.9992 15.5825 10.9992 19.9995C10.9992 24.4202 14.5825 27.9997 18.9995 27.9997C23.4202 27.9997 26.9997 24.4162 26.9997 19.9995C26.9997 15.5786 23.4162 11.9992 18.9995 11.9992ZM18.9995 15.1993C21.6506 15.1993 23.7996 17.3475 23.7996 19.9995C23.7996 22.6506 21.6512 24.7996 18.9995 24.7996C16.3483 24.7996 14.1993 22.6512 14.1993 19.9995C14.1993 17.3483 16.3475 15.1993 18.9995 15.1993ZM27.3997 9.59907C26.2968 9.59907 25.3997 10.4949 25.3997 11.5978C25.3997 12.7006 26.2955 13.5979 27.3997 13.5979C28.5025 13.5979 29.3998 12.702 29.3998 11.5978C29.3998 10.4949 28.5011 9.59768 27.3997 9.59907Z" fill="#282828"/>
</svg>
