<svg width="160" height="63" viewBox="0 0 160 63" fill="none" xmlns="http://www.w3.org/2000/svg">
<g clip-path="url(#clip0_5_28)">
<path d="M78.6244 45.9381C78.6244 47.5193 78.9971 48.7645 79.7425 49.6736C80.488 50.5631 81.5179 51.0078 82.8322 51.0078C83.4011 51.0078 83.8817 50.988 84.274 50.9485C84.686 50.8892 85.0195 50.8299 85.2745 50.7706V41.8765C84.9606 41.659 84.5389 41.4614 84.0092 41.2835C83.4991 41.0859 82.9499 40.9871 82.3614 40.9871C81.0667 40.9871 80.1152 41.4318 79.5071 42.3212C78.9186 43.2106 78.6244 44.4162 78.6244 45.9381ZM88.8349 53.2609C88.1287 53.4784 87.2361 53.676 86.1572 53.8539C85.0979 54.0318 83.9798 54.1207 82.8028 54.1207C81.5865 54.1207 80.4978 53.9329 79.5366 53.5574C78.5754 53.1819 77.7515 52.6483 77.0648 51.9565C76.3979 51.2449 75.878 50.3951 75.5053 49.4068C75.1522 48.3988 74.9756 47.2722 74.9756 46.0271C74.9756 44.8016 75.1228 43.6949 75.417 42.7066C75.7309 41.6986 76.1821 40.8388 76.7706 40.1273C77.3591 39.4158 78.0751 38.8722 78.9186 38.4967C79.7621 38.1014 80.7332 37.9038 81.8317 37.9038C82.5772 37.9038 83.2343 37.9927 83.8032 38.1706C84.3721 38.3485 84.8625 38.5461 85.2745 38.7635V31.3221L88.8349 30.7292V53.2609ZM98.7724 51.2153C99.8703 51.2153 100.704 51.156 101.274 51.0374V47.0647C101.077 47.0054 100.793 46.9461 100.42 46.8868C100.047 46.8275 99.6349 46.7979 99.1844 46.7979C98.7917 46.7979 98.3899 46.8275 97.9779 46.8868C97.5853 46.9461 97.2221 47.0548 96.8892 47.2129C96.5747 47.3711 96.32 47.5983 96.1241 47.8948C95.9274 48.1716 95.8299 48.5273 95.8299 48.9621C95.8299 49.812 96.0947 50.4049 96.6244 50.7409C97.154 51.0571 97.8694 51.2153 98.7724 51.2153ZM98.4782 37.8445C99.6552 37.8445 100.646 37.9927 101.45 38.2892C102.254 38.5856 102.892 39.0007 103.363 39.5343C103.853 40.068 104.196 40.7202 104.393 41.4911C104.608 42.2421 104.716 43.0723 104.716 43.9814V53.3795C104.166 53.4981 103.333 53.6364 102.215 53.7946C101.116 53.9725 99.8703 54.0614 98.4782 54.0614C97.5559 54.0614 96.7127 53.9725 95.9476 53.7946C95.1825 53.6167 94.5251 53.3301 93.9761 52.9348C93.4464 52.5395 93.0244 52.0257 92.7108 51.3932C92.4166 50.7607 92.2694 49.98 92.2694 49.0511C92.2694 48.1616 92.4359 47.4106 92.7697 46.7979C93.1228 46.1852 93.5936 45.691 94.1821 45.3155C94.7706 44.9202 95.4474 44.6436 96.2124 44.4854C96.9968 44.3075 97.8106 44.2186 98.6538 44.2186C99.0464 44.2186 99.4584 44.2482 99.8906 44.3075C100.322 44.3471 100.783 44.4261 101.274 44.5447V43.9518C101.274 43.5367 101.224 43.1414 101.126 42.7659C101.028 42.3904 100.851 42.0643 100.597 41.7875C100.361 41.4911 100.038 41.2638 99.6258 41.1056C99.2331 40.9475 98.7329 40.8685 98.1251 40.8685C97.3012 40.8685 96.5453 40.9278 95.8593 41.0463C95.1724 41.1649 94.6133 41.3033 94.1821 41.4614L93.7407 38.556C94.1913 38.3978 94.8487 38.2398 95.7122 38.0816C96.5747 37.9235 97.497 37.8445 98.4782 37.8445ZM112.666 53.7353H109.105V38.2299H112.666V53.7353ZM113.048 33.6939C113.048 34.3658 112.833 34.8995 112.401 35.2948C111.97 35.6901 111.459 35.8878 110.871 35.8878C110.263 35.8878 109.743 35.6901 109.311 35.2948C108.88 34.8995 108.664 34.3658 108.664 33.6939C108.664 33.0021 108.88 32.4586 109.311 32.0633C109.743 31.668 110.263 31.4703 110.871 31.4703C111.459 31.4703 111.97 31.668 112.401 32.0633C112.833 32.4586 113.048 33.0021 113.048 33.6939ZM117.208 38.7339C117.895 38.5363 118.787 38.3485 119.886 38.1706C120.985 37.9927 122.2 37.9038 123.535 37.9038C124.79 37.9038 125.84 38.0816 126.683 38.4374C127.526 38.7734 128.194 39.2576 128.684 39.8901C129.194 40.5028 129.548 41.2539 129.743 42.1433C129.96 43.013 130.067 43.9715 130.067 45.0191V53.7353H126.507V45.5823C126.507 44.7522 126.448 44.0506 126.33 43.4774C126.232 42.8845 126.055 42.4101 125.8 42.0543C125.565 41.6788 125.231 41.412 124.8 41.2539C124.388 41.076 123.878 40.9871 123.27 40.9871C122.818 40.9871 122.348 41.0167 121.857 41.076C121.367 41.1353 121.004 41.1847 120.769 41.2242V53.7353H117.208V38.7339ZM134.245 34.1386L137.805 33.5456V38.2299H143.278V41.2242H137.805V47.5391C137.805 48.7842 138.001 49.6736 138.394 50.2073C138.785 50.7409 139.453 51.0078 140.394 51.0078C141.042 51.0078 141.61 50.9386 142.101 50.8002C142.611 50.6619 143.013 50.5334 143.308 50.4148L143.896 53.2609C143.484 53.4388 142.944 53.6167 142.278 53.7946C141.61 53.9922 140.826 54.0911 139.924 54.0911C138.825 54.0911 137.903 53.9428 137.158 53.6463C136.431 53.3499 135.853 52.9249 135.422 52.3715C134.989 51.7983 134.686 51.1164 134.509 50.3259C134.333 49.5155 134.245 48.5964 134.245 47.5687V34.1386ZM159.285 38.2299C157.696 44.1197 155.851 49.4562 153.753 54.2393C153.36 55.1287 152.958 55.8896 152.546 56.5221C152.134 57.1546 151.673 57.6783 151.163 58.0934C150.653 58.5085 150.084 58.8049 149.457 58.9828C148.829 59.1804 148.103 59.2793 147.279 59.2793C146.729 59.2793 146.18 59.22 145.631 59.1014C145.102 58.9828 144.699 58.8543 144.425 58.716L145.072 55.8402C145.778 56.117 146.474 56.2553 147.161 56.2553C148.083 56.2553 148.799 56.028 149.309 55.5734C149.839 55.1386 150.3 54.4567 150.692 53.5278C149.574 51.3536 148.495 48.9818 147.456 46.4125C146.435 43.8431 145.523 41.1156 144.719 38.2299H148.515C148.711 39.06 148.946 39.9593 149.221 40.9278C149.515 41.8962 149.829 42.8845 150.163 43.8925C150.496 44.8807 150.849 45.8689 151.222 46.8572C151.594 47.8454 151.967 48.7645 152.34 49.6143C152.967 47.8553 153.556 45.9875 154.106 44.0111C154.655 42.0148 155.155 40.0877 155.606 38.2299H159.285Z" fill="#282828"/>
<path d="M77.7397 14.2306C78.1167 14.2306 78.4385 14.2584 78.7052 14.314C78.9811 14.3696 79.1742 14.4205 79.2845 14.4668L79.05 15.5786C78.9397 15.523 78.7834 15.4721 78.5811 15.4257C78.3788 15.3701 78.1305 15.3424 77.8362 15.3424C77.2385 15.3424 76.8201 15.5091 76.5811 15.8427C76.342 16.1669 76.2224 16.607 76.2224 17.1629V17.7882H78.9811V18.8722H76.2224V25.0147H74.9397V17.1351C74.9397 16.2086 75.165 15.4952 75.6155 14.9949C76.0661 14.4854 76.7742 14.2306 77.7397 14.2306ZM85.9706 24.8063C85.6763 24.8804 85.2855 24.9591 84.7982 25.0425C84.32 25.1259 83.7637 25.1676 83.1292 25.1676C82.5775 25.1676 82.1131 25.0888 81.7361 24.9313C81.3591 24.7646 81.0556 24.5329 80.8257 24.2365C80.5959 23.94 80.4303 23.5926 80.3292 23.1942C80.228 22.7865 80.1775 22.3372 80.1775 21.8462V17.7882H81.4602V21.5682C81.4602 22.4484 81.5982 23.0784 81.874 23.4582C82.1499 23.8381 82.6142 24.028 83.2671 24.028C83.4051 24.028 83.5476 24.0234 83.6947 24.0141C83.8418 24.0049 83.9798 23.9956 84.1085 23.9863C84.2372 23.9678 84.3522 23.9539 84.4533 23.9446C84.5637 23.9261 84.6418 23.9076 84.6878 23.889V17.7882H85.9706V24.8063ZM90.8288 17.6354C90.9391 17.6354 91.0633 17.6446 91.2012 17.6632C91.3483 17.6724 91.4908 17.691 91.6288 17.7188C91.7667 17.7373 91.8908 17.7604 92.0009 17.7882C92.1205 17.8068 92.2078 17.8253 92.263 17.8438L92.0423 18.9695C91.9414 18.9324 91.7713 18.8907 91.5322 18.8444C91.3023 18.7888 91.0035 18.761 90.6357 18.761C90.3966 18.761 90.1575 18.7888 89.9184 18.8444C89.6885 18.8907 89.5368 18.9232 89.4633 18.9417V25.0147H88.1805V18.094C88.4839 17.9828 88.861 17.8809 89.3115 17.7882C89.7621 17.6863 90.2679 17.6354 90.8288 17.6354ZM93.5007 17.9967C93.7949 17.9226 94.1857 17.8438 94.6731 17.7604C95.1605 17.6771 95.7214 17.6354 96.3559 17.6354C96.926 17.6354 97.3995 17.7188 97.7765 17.8855C98.1536 18.043 98.4524 18.27 98.6731 18.5665C98.903 18.8537 99.0639 19.2011 99.1559 19.6088C99.2478 20.0164 99.2938 20.4657 99.2938 20.9568V25.0147H98.011V21.2347C98.011 20.79 97.9788 20.4102 97.9145 20.0952C97.8593 19.7802 97.7628 19.5254 97.6248 19.3308C97.4869 19.1363 97.303 18.9973 97.0731 18.9139C96.8432 18.8213 96.5582 18.7749 96.2179 18.7749C96.08 18.7749 95.9375 18.7796 95.7903 18.7888C95.6432 18.7981 95.5007 18.812 95.3628 18.8305C95.234 18.8398 95.1145 18.8537 95.0041 18.8722C94.903 18.8907 94.8294 18.9046 94.7834 18.9139V25.0147H93.5007V17.9967ZM102.704 25.0147H101.422V17.7882H102.704V25.0147ZM102.056 16.4819C101.826 16.4819 101.629 16.4078 101.463 16.2596C101.307 16.1021 101.228 15.8936 101.228 15.6342C101.228 15.3748 101.307 15.171 101.463 15.0227C101.629 14.8652 101.826 14.7865 102.056 14.7865C102.286 14.7865 102.479 14.8652 102.635 15.0227C102.801 15.171 102.884 15.3748 102.884 15.6342C102.884 15.8936 102.801 16.1021 102.635 16.2596C102.479 16.4078 102.286 16.4819 102.056 16.4819ZM106.11 17.7882H108.828V18.8722H106.11V22.2075C106.11 22.5688 106.138 22.8699 106.193 23.1108C106.248 23.3424 106.331 23.5277 106.441 23.6667C106.552 23.7964 106.69 23.889 106.855 23.9446C107.021 24.0002 107.214 24.028 107.434 24.028C107.821 24.028 108.129 23.9863 108.359 23.9029C108.598 23.8103 108.763 23.7454 108.855 23.7084L109.103 24.7785C108.975 24.8433 108.749 24.9221 108.428 25.0147C108.106 25.1166 107.738 25.1676 107.324 25.1676C106.837 25.1676 106.432 25.1074 106.11 24.9869C105.798 24.8572 105.545 24.6673 105.352 24.4171C105.159 24.167 105.021 23.8613 104.938 23.4999C104.864 23.1293 104.828 22.7032 104.828 22.2214V15.7732L106.11 15.5508V17.7882ZM116.17 24.8063C115.876 24.8804 115.485 24.9591 114.998 25.0425C114.52 25.1259 113.963 25.1676 113.329 25.1676C112.777 25.1676 112.313 25.0888 111.936 24.9313C111.559 24.7646 111.255 24.5329 111.025 24.2365C110.795 23.94 110.63 23.5926 110.529 23.1942C110.428 22.7865 110.377 22.3372 110.377 21.8462V17.7882H111.66V21.5682C111.66 22.4484 111.798 23.0784 112.074 23.4582C112.349 23.8381 112.814 24.028 113.467 24.028C113.605 24.028 113.747 24.0234 113.894 24.0141C114.041 24.0049 114.179 23.9956 114.308 23.9863C114.437 23.9678 114.552 23.9539 114.653 23.9446C114.763 23.9261 114.841 23.9076 114.887 23.889V17.7882H116.17V24.8063ZM121.028 17.6354C121.138 17.6354 121.263 17.6446 121.4 17.6632C121.548 17.6724 121.69 17.691 121.828 17.7188C121.966 17.7373 122.09 17.7604 122.2 17.7882C122.32 17.8068 122.407 17.8253 122.463 17.8438L122.242 18.9695C122.141 18.9324 121.971 18.8907 121.731 18.8444C121.502 18.7888 121.203 18.761 120.835 18.761C120.596 18.761 120.357 18.7888 120.118 18.8444C119.888 18.8907 119.736 18.9232 119.663 18.9417V25.0147H118.38V18.094C118.683 17.9828 119.06 17.8809 119.511 17.7882C119.961 17.6863 120.467 17.6354 121.028 17.6354ZM123.3 21.4154C123.3 20.7761 123.392 20.2202 123.576 19.7477C123.76 19.266 124.004 18.8676 124.307 18.5526C124.611 18.2376 124.96 18.0013 125.355 17.8438C125.751 17.6863 126.155 17.6076 126.569 17.6076C127.535 17.6076 128.275 17.9133 128.79 18.5248C129.305 19.127 129.562 20.0488 129.562 21.2903C129.562 21.3459 129.562 21.42 129.562 21.5126C129.562 21.596 129.558 21.6748 129.549 21.7489H124.638C124.693 22.4993 124.909 23.0691 125.286 23.4582C125.663 23.8474 126.252 24.0419 127.052 24.0419C127.503 24.0419 127.88 24.0049 128.183 23.9307C128.496 23.8474 128.73 23.7686 128.886 23.6945L129.066 24.7785C128.909 24.8618 128.634 24.9499 128.238 25.0425C127.852 25.1352 127.411 25.1815 126.914 25.1815C126.289 25.1815 125.746 25.0888 125.286 24.9035C124.836 24.709 124.463 24.4449 124.169 24.1114C123.875 23.7779 123.654 23.3841 123.507 22.9302C123.369 22.4669 123.3 21.962 123.3 21.4154ZM128.224 20.7066C128.234 20.1229 128.086 19.6458 127.783 19.2752C127.489 18.8954 127.08 18.7054 126.555 18.7054C126.261 18.7054 125.999 18.7657 125.769 18.8861C125.549 18.9973 125.36 19.1455 125.204 19.3308C125.047 19.5161 124.923 19.7292 124.831 19.9701C124.748 20.211 124.693 20.4565 124.666 20.7066H128.224Z" fill="#282828"/>
<path d="M50.5747 2.77942H11.954C6.87554 2.77942 2.75862 6.92737 2.75862 12.0441V50.9559C2.75862 56.0726 6.87554 60.2206 11.954 60.2206H50.5747C55.6532 60.2206 59.7701 56.0726 59.7701 50.9559V12.0441C59.7701 6.92737 55.6532 2.77942 50.5747 2.77942Z" stroke="#282828" stroke-width="5"/>
<path d="M44.9017 31.8187C44.9017 34.4869 44.4897 36.8142 43.6658 38.8006C42.8419 40.7573 41.6796 42.3879 40.1789 43.6924C38.6783 44.9672 36.8833 45.9307 34.7941 46.5829C32.7049 47.2055 30.4097 47.5168 27.9086 47.5168C26.6727 47.5168 25.3045 47.4575 23.8038 47.3389C22.3325 47.25 20.9937 47.0573 19.7872 46.7608V16.8766C20.9937 16.5801 22.3325 16.3874 23.8038 16.2985C25.3045 16.1799 26.6727 16.1206 27.9086 16.1206C30.4097 16.1206 32.7049 16.4467 34.7941 17.0989C36.8833 17.7215 38.6783 18.6851 40.1789 19.9895C41.6796 21.2644 42.8419 22.8949 43.6658 24.8813C44.4897 26.838 44.9017 29.1505 44.9017 31.8187ZM28.2617 43.7368C32.3224 43.7368 35.3532 42.6992 37.3541 40.6239C39.355 38.5189 40.3555 35.5839 40.3555 31.8187C40.3555 28.0535 39.355 25.1333 37.3541 23.058C35.3532 20.9531 32.3224 19.9006 28.2617 19.9006C27.0553 19.9006 26.1137 19.9154 25.4369 19.9451C24.7895 19.9747 24.3334 20.0044 24.0686 20.034V43.6034C24.3334 43.6331 24.7895 43.6627 25.4369 43.6924C26.1137 43.722 27.0553 43.7368 28.2617 43.7368Z" fill="#282828"/>
</g>
<defs>
<clipPath id="clip0_5_28">
<rect width="160" height="63" fill="white"/>
</clipPath>
</defs>
</svg>
