<svg width="32" height="36" viewBox="0 0 32 36" fill="none" xmlns="http://www.w3.org/2000/svg">
<path d="M2.24934 4.46419C0 6.67837 0 10.2425 0 17.37V18.63C0 25.7575 0 29.3216 2.24934 31.5358C4.49866 33.75 8.11936 33.75 15.36 33.75H16.64C23.8806 33.75 27.5014 33.75 29.7506 31.5358C32 29.3216 32 25.7575 32 18.63V17.37C32 10.2425 32 6.67837 29.7506 4.46419C27.5014 2.25 23.8806 2.25 16.64 2.25H15.36C8.11936 2.25 4.49866 2.25 2.24934 4.46419ZM5.4 11.8313H9.05336C9.17336 17.8425 11.8666 20.3887 14 20.9137V11.8313H17.44V17.0156C19.5466 16.7925 21.76 14.43 22.5066 11.8313H25.9466C25.6652 13.179 25.1043 14.4551 24.299 15.5798C23.4938 16.7044 22.4615 17.6534 21.2666 18.3675C22.6007 19.0195 23.7791 19.9427 24.7237 21.0762C25.6684 22.2098 26.3579 23.5278 26.7466 24.9431H22.96C22.6111 23.7137 21.901 22.6132 20.9189 21.7796C19.9369 20.946 18.7266 20.4165 17.44 20.2575V24.9431H17.0266C9.73336 24.9431 5.57334 20.0213 5.4 11.8313Z" fill="#282828"/>
</svg>
