<svg width="44" height="44" viewBox="0 0 44 44" fill="none" xmlns="http://www.w3.org/2000/svg">
<path d="M22.4471 7.33325C23.4263 7.33864 25.8762 7.36233 28.4791 7.46659L29.402 7.50683C32.0228 7.63091 34.6413 7.84288 35.9401 8.205C37.6724 8.69166 39.034 10.1117 39.4942 11.9117C40.227 14.77 40.3186 20.3488 40.33 21.6989L40.3316 21.9787V21.9983C40.3316 21.9983 40.3316 22.0051 40.3316 22.0181L40.33 22.2978C40.3186 23.6479 40.227 29.2267 39.4942 32.0851C39.0276 33.8916 37.666 35.3118 35.9401 35.7917C34.6413 36.1538 32.0228 36.3657 29.402 36.4899L28.4791 36.53C25.8762 36.6343 23.4263 36.658 22.4471 36.6635L22.0174 36.6649H21.9983C21.9983 36.6649 21.9919 36.6649 21.9792 36.6649L21.5499 36.6635C19.4775 36.6521 10.8124 36.5584 8.05656 35.7917C6.32423 35.305 4.96265 33.885 4.50239 32.0851C3.76966 29.2267 3.67807 23.6479 3.66663 22.2978V21.6989C3.67807 20.3488 3.76966 14.77 4.50239 11.9117C4.96903 10.105 6.33061 8.68501 8.05656 8.205C10.8124 7.43817 19.4775 7.34466 21.5499 7.33325H22.4471ZM18.3317 15.5817V28.4149L29.3316 21.9983L18.3317 15.5817Z" fill="#282828"/>
</svg>
